<mxfile host="app.diagrams.net" modified="2020-09-23T06:38:44.699Z" agent="5.0 (Windows NT 10.0; Win64; x64) AppleWebKit/537.36 (KHTML, like Gecko) Chrome/85.0.4183.102 Safari/537.36" etag="yyJ1ieurEnPZM8T7BqZm" version="13.7.3" type="github">
  <diagram id="pxym1uByHhxu7Ba_5gcs" name="Page-1">
    <mxGraphModel dx="737" dy="415" grid="0" gridSize="10" guides="1" tooltips="1" connect="1" arrows="1" fold="1" page="1" pageScale="1" pageWidth="827" pageHeight="1169" math="0" shadow="0">
      <root>
        <mxCell id="0" />
        <mxCell id="1" parent="0" />
        <mxCell id="jn5aoe7jhU1806tFllV1-6" value="机械臂IPC" style="rounded=1;whiteSpace=wrap;html=1;" parent="1" vertex="1">
          <mxGeometry x="530" y="318" width="77" height="38" as="geometry" />
        </mxCell>
        <mxCell id="jn5aoe7jhU1806tFllV1-8" value="交换机" style="rounded=1;whiteSpace=wrap;html=1;" parent="1" vertex="1">
          <mxGeometry x="404" y="318" width="77" height="38" as="geometry" />
        </mxCell>
        <mxCell id="jn5aoe7jhU1806tFllV1-10" value="BCNet-S7MPI" style="rounded=1;whiteSpace=wrap;html=1;" parent="1" vertex="1">
          <mxGeometry x="272" y="318" width="77" height="38" as="geometry" />
        </mxCell>
        <mxCell id="jn5aoe7jhU1806tFllV1-14" value="S7-300 PLC" style="rounded=1;whiteSpace=wrap;html=1;" parent="1" vertex="1">
          <mxGeometry x="146" y="318" width="77" height="38" as="geometry" />
        </mxCell>
        <mxCell id="jn5aoe7jhU1806tFllV1-16" value="通信协议&lt;br&gt;适配器" style="rounded=1;whiteSpace=wrap;html=1;" parent="1" vertex="1">
          <mxGeometry x="404" y="249" width="77" height="38" as="geometry" />
        </mxCell>
        <mxCell id="jn5aoe7jhU1806tFllV1-17" value="" style="endArrow=classic;startArrow=classic;html=1;entryX=1;entryY=0.5;entryDx=0;entryDy=0;exitX=0;exitY=0.5;exitDx=0;exitDy=0;" parent="1" source="jn5aoe7jhU1806tFllV1-10" target="jn5aoe7jhU1806tFllV1-14" edge="1">
          <mxGeometry width="50" height="50" relative="1" as="geometry">
            <mxPoint x="279" y="402" as="sourcePoint" />
            <mxPoint x="456" y="306" as="targetPoint" />
          </mxGeometry>
        </mxCell>
        <mxCell id="jn5aoe7jhU1806tFllV1-18" value="" style="endArrow=classic;startArrow=classic;html=1;entryX=0;entryY=0.5;entryDx=0;entryDy=0;exitX=1;exitY=0.5;exitDx=0;exitDy=0;" parent="1" source="jn5aoe7jhU1806tFllV1-10" target="jn5aoe7jhU1806tFllV1-8" edge="1">
          <mxGeometry width="50" height="50" relative="1" as="geometry">
            <mxPoint x="406" y="356" as="sourcePoint" />
            <mxPoint x="456" y="306" as="targetPoint" />
          </mxGeometry>
        </mxCell>
        <mxCell id="jn5aoe7jhU1806tFllV1-19" value="server" style="text;html=1;strokeColor=none;fillColor=none;align=center;verticalAlign=middle;whiteSpace=wrap;rounded=0;" parent="1" vertex="1">
          <mxGeometry x="290.5" y="298" width="40" height="20" as="geometry" />
        </mxCell>
        <mxCell id="jn5aoe7jhU1806tFllV1-20" value="server" style="text;html=1;strokeColor=none;fillColor=none;align=center;verticalAlign=middle;whiteSpace=wrap;rounded=0;" parent="1" vertex="1">
          <mxGeometry x="484" y="258" width="40" height="20" as="geometry" />
        </mxCell>
        <mxCell id="jn5aoe7jhU1806tFllV1-23" value="client" style="text;html=1;strokeColor=none;fillColor=none;align=center;verticalAlign=middle;whiteSpace=wrap;rounded=0;" parent="1" vertex="1">
          <mxGeometry x="357" y="258" width="40" height="20" as="geometry" />
        </mxCell>
        <mxCell id="jn5aoe7jhU1806tFllV1-26" value="" style="endArrow=classic;startArrow=classic;html=1;entryX=0;entryY=0.5;entryDx=0;entryDy=0;" parent="1" target="jn5aoe7jhU1806tFllV1-6" edge="1">
          <mxGeometry width="50" height="50" relative="1" as="geometry">
            <mxPoint x="478" y="337" as="sourcePoint" />
            <mxPoint x="456" y="306" as="targetPoint" />
          </mxGeometry>
        </mxCell>
        <mxCell id="jn5aoe7jhU1806tFllV1-29" value="client" style="text;html=1;strokeColor=none;fillColor=none;align=center;verticalAlign=middle;whiteSpace=wrap;rounded=0;" parent="1" vertex="1">
          <mxGeometry x="548.5" y="292" width="40" height="20" as="geometry" />
        </mxCell>
        <mxCell id="jn5aoe7jhU1806tFllV1-32" value="MPI" style="text;html=1;strokeColor=none;fillColor=none;align=center;verticalAlign=middle;whiteSpace=wrap;rounded=0;" parent="1" vertex="1">
          <mxGeometry x="225" y="318" width="40" height="20" as="geometry" />
        </mxCell>
        <mxCell id="jn5aoe7jhU1806tFllV1-33" value="" style="endArrow=classic;startArrow=classic;html=1;entryX=0.25;entryY=1;entryDx=0;entryDy=0;exitX=0.25;exitY=0;exitDx=0;exitDy=0;" parent="1" source="jn5aoe7jhU1806tFllV1-8" target="jn5aoe7jhU1806tFllV1-16" edge="1">
          <mxGeometry width="50" height="50" relative="1" as="geometry">
            <mxPoint x="406" y="356" as="sourcePoint" />
            <mxPoint x="456" y="306" as="targetPoint" />
          </mxGeometry>
        </mxCell>
        <mxCell id="jn5aoe7jhU1806tFllV1-34" value="" style="endArrow=classic;startArrow=classic;html=1;entryX=0.75;entryY=1;entryDx=0;entryDy=0;exitX=0.75;exitY=0;exitDx=0;exitDy=0;" parent="1" source="jn5aoe7jhU1806tFllV1-8" target="jn5aoe7jhU1806tFllV1-16" edge="1">
          <mxGeometry width="50" height="50" relative="1" as="geometry">
            <mxPoint x="406" y="356" as="sourcePoint" />
            <mxPoint x="456" y="306" as="targetPoint" />
          </mxGeometry>
        </mxCell>
        <mxCell id="jn5aoe7jhU1806tFllV1-35" value="ModbusTCP" style="text;html=1;strokeColor=none;fillColor=none;align=center;verticalAlign=middle;whiteSpace=wrap;rounded=0;" parent="1" vertex="1">
          <mxGeometry x="481" y="298" width="40" height="20" as="geometry" />
        </mxCell>
        <mxCell id="jn5aoe7jhU1806tFllV1-36" value="ModbusTCP" style="text;html=1;strokeColor=none;fillColor=none;align=center;verticalAlign=middle;whiteSpace=wrap;rounded=0;" parent="1" vertex="1">
          <mxGeometry x="349" y="298" width="61" height="20" as="geometry" />
        </mxCell>
        <mxCell id="oab_LOkMKrUNiBhGT1ff-1" value="IP:90.0.0.122" style="text;html=1;strokeColor=none;fillColor=none;align=center;verticalAlign=middle;whiteSpace=wrap;rounded=0;" vertex="1" parent="1">
          <mxGeometry x="289" y="360" width="40" height="20" as="geometry" />
        </mxCell>
        <mxCell id="oab_LOkMKrUNiBhGT1ff-2" value="IP:90.0.0.123" style="text;html=1;align=center;verticalAlign=middle;resizable=0;points=[];autosize=1;" vertex="1" parent="1">
          <mxGeometry x="402.5" y="225" width="81" height="18" as="geometry" />
        </mxCell>
        <mxCell id="oab_LOkMKrUNiBhGT1ff-3" value="IP:90.0.0.1" style="text;html=1;align=center;verticalAlign=middle;resizable=0;points=[];autosize=1;" vertex="1" parent="1">
          <mxGeometry x="535" y="362" width="68" height="18" as="geometry" />
        </mxCell>
      </root>
    </mxGraphModel>
  </diagram>
</mxfile>
